<svg width="65" height="65" viewBox="0 0 65 65" fill="none" xmlns="http://www.w3.org/2000/svg">
<path d="M33.24 15V15.96C32.152 15.992 31.32 16.12 30.744 16.344C30.2 16.536 29.832 16.92 29.64 17.496C29.448 18.04 29.352 18.904 29.352 20.088V43.896C29.352 45.048 29.448 45.912 29.64 46.488C29.832 47.064 30.2 47.448 30.744 47.64C31.32 47.8 32.152 47.88 33.24 47.88H36.744C38.76 47.88 40.28 47.592 41.304 47.016C42.36 46.44 43.112 45.496 43.56 44.184C44.04 42.872 44.392 41.112 44.616 38.904H45.72C45.624 39.896 45.576 41.208 45.576 42.84C45.576 43.448 45.592 44.328 45.624 45.48C45.688 46.6 45.784 47.768 45.912 48.984C44.28 48.92 42.44 48.888 40.392 48.888C38.344 48.856 36.52 48.84 34.92 48.84C33.96 48.84 32.68 48.84 31.08 48.84C29.512 48.84 27.832 48.856 26.04 48.888C24.248 48.888 22.568 48.92 21 48.984V48.024C22.088 47.96 22.904 47.832 23.448 47.64C24.024 47.448 24.408 47.064 24.6 46.488C24.792 45.912 24.888 45.048 24.888 43.896V20.088C24.888 18.904 24.792 18.04 24.6 17.496C24.408 16.92 24.024 16.536 23.448 16.344C22.904 16.12 22.088 15.992 21 15.96V15C21.672 15.032 22.552 15.064 23.64 15.096C24.728 15.128 25.896 15.144 27.144 15.144C28.264 15.144 29.368 15.128 30.456 15.096C31.576 15.064 32.504 15.032 33.24 15Z" fill="white"/>
<circle cx="32.5" cy="32.5" r="31" stroke="white" stroke-width="3"/>
</svg>
